<svg width="145" height="165" viewBox="0 0 145 165" fill="none" xmlns="http://www.w3.org/2000/svg">
<path fill-rule="evenodd" clip-rule="evenodd" d="M90.7339 140.195C121.84 132.205 144.796 104.366 144.796 71.25C144.796 31.8997 112.382 0 72.398 0C32.4137 0 0 31.8997 0 71.25C0 105.412 24.4291 133.958 57.0327 140.892L70.8545 163.137C72.4309 165.674 76.2076 165.607 77.689 163.015L90.7339 140.195ZM47.3377 52.4571V69.2144H36.1964V45.0724C36.1964 36.725 42.8666 29.9581 51.0947 29.9581H96.1924C104.421 29.9581 111.091 36.725 111.091 45.0724V69.2144H98.7115V52.4571C98.7115 49.9529 96.7105 47.9229 94.242 47.9229H51.8072C49.3387 47.9229 47.3377 49.9529 47.3377 52.4571ZM58.6647 39.4556C58.6647 38.4066 59.503 37.5561 60.5371 37.5561H86.7501C87.7842 37.5561 88.6225 38.4066 88.6225 39.4556C88.6225 40.5047 87.7842 41.3551 86.7501 41.3551H60.5371C59.503 41.3551 58.6647 40.5047 58.6647 39.4556ZM116.849 62.8827H114.836V79.345H118.339C119.161 79.345 119.828 78.6684 119.828 77.8336V65.9056C119.828 64.2361 118.494 62.8827 116.849 62.8827ZM93.857 117.335C93.0342 117.335 92.3672 116.658 92.3672 115.824V111.248C92.3672 110.414 93.0342 109.737 93.857 109.737H107.104C107.927 109.737 108.594 110.414 108.594 111.248V115.824C108.594 116.658 107.927 117.335 107.104 117.335H93.857ZM38.6929 115.824C38.6929 116.658 39.3599 117.335 40.1827 117.335H53.4301C54.253 117.335 54.92 116.658 54.92 115.824V111.248C54.92 110.414 54.253 109.737 53.4301 109.737H40.1827C39.3599 109.737 38.6929 110.414 38.6929 111.248V115.824ZM27.4587 65.9056C27.4587 64.2361 28.7927 62.8827 30.4384 62.8827H32.4516V79.345H28.9485C28.1257 79.345 27.4587 78.6684 27.4587 77.8336V65.9056ZM111.091 74.2797H36.1964V102.67C36.1964 105.174 38.1974 107.204 40.6659 107.204H106.621C109.09 107.204 111.091 105.174 111.091 102.67V74.2797ZM92.9913 85.6767C89.8891 85.6767 87.3743 88.228 87.3743 91.3752C87.3743 94.5224 89.8891 97.0737 92.9913 97.0737C96.0936 97.0737 98.6084 94.5224 98.6084 91.3752C98.6084 88.228 96.0936 85.6767 92.9913 85.6767ZM49.927 91.3752C49.927 88.228 52.4419 85.6767 55.5441 85.6767C58.6463 85.6767 61.1612 88.228 61.1612 91.3752C61.1612 94.5224 58.6463 97.0737 55.5441 97.0737C52.4419 97.0737 49.927 94.5224 49.927 91.3752Z" fill="#FF7322"/>
</svg>
