<svg width="275" height="63" viewBox="0 0 275 63" fill="none" xmlns="http://www.w3.org/2000/svg">
<path fill-rule="evenodd" clip-rule="evenodd" d="M33.346 53.0862C44.7777 50.1023 53.2145 39.7063 53.2145 27.3397C53.2145 12.6449 41.302 0.732422 26.6072 0.732422C11.9125 0.732422 0 12.6449 0 27.3397C0 40.0968 8.97802 50.757 20.9603 53.3465L26.04 61.6535C26.6194 62.6009 28.0073 62.5758 28.5518 61.608L33.346 53.0862ZM17.3986 20.0114V26.1699H13.304V17.2974C13.304 14.2296 15.7554 11.7427 18.7793 11.7427H35.3534C38.3773 11.7427 40.8287 14.2296 40.8287 17.2974V26.1699H36.2792V20.0114C36.2792 19.091 35.5438 18.345 34.6366 18.345H19.0412C18.134 18.345 17.3986 19.091 17.3986 20.0114ZM21.5614 15.2331C21.5614 14.8476 21.8695 14.535 22.2495 14.535H31.8832C32.2632 14.535 32.5713 14.8476 32.5713 15.2331C32.5713 15.6187 32.2632 15.9312 31.8832 15.9312H22.2495C21.8695 15.9312 21.5614 15.6187 21.5614 15.2331ZM42.9449 23.8429H42.205V29.893H43.4924C43.7948 29.893 44.04 29.6444 44.04 29.3376V24.9539C44.04 24.3403 43.5497 23.8429 42.9449 23.8429ZM34.4951 43.8549C34.1927 43.8549 33.9475 43.6062 33.9475 43.2994V41.618C33.9475 41.3112 34.1927 41.0625 34.4951 41.0625H39.3637C39.6661 41.0625 39.9112 41.3112 39.9112 41.618V43.2994C39.9112 43.6062 39.6661 43.8549 39.3637 43.8549H34.4951ZM14.2215 43.2994C14.2215 43.6062 14.4666 43.8549 14.769 43.8549H19.6376C19.94 43.8549 20.1852 43.6062 20.1852 43.2994V41.618C20.1852 41.3112 19.94 41.0625 19.6376 41.0625H14.769C14.4666 41.0625 14.2215 41.3112 14.2215 41.618V43.2994ZM10.0928 24.9539C10.0928 24.3403 10.5831 23.8429 11.1878 23.8429H11.9278V29.893H10.6403C10.3379 29.893 10.0928 29.6444 10.0928 29.3376V24.9539ZM40.8287 28.0315H13.304V38.4653C13.304 39.3856 14.0394 40.1317 14.9466 40.1317H39.1861C40.0933 40.1317 40.8287 39.3856 40.8287 38.4653V28.0315ZM34.1769 32.22C33.0368 32.22 32.1126 33.1577 32.1126 34.3143C32.1126 35.4709 33.0368 36.4086 34.1769 36.4086C35.317 36.4086 36.2413 35.4709 36.2413 34.3143C36.2413 33.1577 35.317 32.22 34.1769 32.22ZM18.3502 34.3143C18.3502 33.1577 19.2744 32.22 20.4146 32.22C21.5547 32.22 22.4789 33.1577 22.4789 34.3143C22.4789 35.4709 21.5547 36.4086 20.4146 36.4086C19.2744 36.4086 18.3502 35.4709 18.3502 34.3143Z" fill="#FF7322"/>
<path d="M255.547 0.239312C256.391 0.240948 257.196 0.598457 257.763 1.22405L271.933 16.8502C273.104 18.1413 272.178 20.208 270.435 20.1936L210.451 19.6991V55.1496C210.451 55.7172 210.244 56.2075 209.831 56.6203C209.419 57.0331 208.928 57.2395 208.361 57.2395H192.416C191.848 57.2395 191.358 57.0331 190.945 56.6203C190.532 56.2075 190.326 55.7172 190.326 55.1496V19.6991H131.407C130.84 19.6991 130.349 19.4927 129.937 19.0798C129.524 18.667 129.317 18.1768 129.317 17.6092L129.937 2.08988C129.937 1.52226 130.143 1.03204 130.556 0.619225C130.969 0.206409 131.459 0 132.027 0L255.547 0.239312Z" fill="#FF7322"/>
<path d="M157.693 56.8037C149.024 56.8037 142.135 54.9202 137.027 51.1533C131.97 47.3864 129.441 41.5037 129.441 33.5054L129.441 25.7071C129.441 25.1394 129.648 24.6492 130.061 24.2364C130.473 23.8236 130.964 23.6172 131.531 23.6172H147.709C148.276 23.6172 148.766 23.8236 149.179 24.2364C149.592 24.6492 149.798 25.1394 149.798 25.7071V34.7439C149.798 36.8596 150.495 38.485 151.888 39.6203C153.333 40.7555 155.268 41.3231 157.693 41.3231C160.119 41.3231 162.028 40.7555 163.421 39.6203C164.866 38.485 165.589 36.8596 165.589 34.7439V25.7071C165.589 25.1394 165.795 24.6492 166.208 24.2364C166.621 23.8236 167.111 23.6172 167.678 23.6172H183.856C184.423 23.6172 184.914 23.8236 185.326 24.2364C185.739 24.6492 185.946 25.1394 185.946 25.7071V33.5054C185.946 41.5037 183.391 47.3864 178.283 51.1533C173.226 54.9202 166.363 56.8037 157.693 56.8037Z" fill="#FF7322"/>
<path d="M127.304 53.6307C127.407 53.8371 127.459 54.0693 127.459 54.3273C127.459 54.7918 127.278 55.2046 126.917 55.5658C126.608 55.8754 126.221 56.0302 125.756 56.0302H108.186C107.463 56.0302 106.792 55.8496 106.173 55.4884C105.606 55.1272 105.193 54.6628 104.935 54.0951L98.1233 38.7693H91.6214V53.9403C91.6214 54.5079 91.415 54.9982 91.0022 55.411C90.5894 55.8238 90.0992 56.0302 89.5316 56.0302H72.8125C72.2449 56.0302 71.7547 55.8238 71.3419 55.411C70.9291 54.9982 70.7227 54.5079 70.7227 53.9403V3.93802C70.7227 3.3704 70.9291 2.88019 71.3419 2.46737C71.7547 2.05455 72.2449 1.84814 72.8125 1.84814H102.922C107.566 1.84814 111.617 2.59637 115.075 4.09283C118.583 5.58929 121.267 7.75657 123.124 10.5947C124.982 13.4328 125.911 16.7611 125.911 20.5797C125.911 27.5975 123.202 32.6803 117.784 35.828L127.304 53.6307ZM101.297 24.4498C102.432 24.4498 103.309 24.0886 103.929 23.3662C104.548 22.5921 104.857 21.6375 104.857 20.5023C104.857 19.367 104.548 18.3866 103.929 17.5609C103.361 16.6837 102.484 16.2451 101.297 16.2451H91.6214V24.4498H101.297Z" fill="#FF7322"/>
<path d="M265.651 38.3072V30.4549C265.651 29.3503 264.756 28.4549 263.651 28.4549H237.23L237.23 23.6172H217.274L217.274 28.4549V54.0297C217.274 55.1342 218.17 56.0297 219.274 56.0297H268.489C269.594 56.0297 270.489 55.1342 270.489 54.0297V47.1449C270.489 46.0403 269.594 45.1449 268.489 45.1449H237.23V40.3072H263.651C264.756 40.3072 265.651 39.4118 265.651 38.3072Z" fill="#FF7322"/>
</svg>
