<svg width="152" height="34" viewBox="0 0 152 34" fill="none" xmlns="http://www.w3.org/2000/svg">
<path fill-rule="evenodd" clip-rule="evenodd" d="M18.389 28.871C24.6932 27.2256 29.3457 21.4925 29.3457 14.6729C29.3457 6.56926 22.7764 0 14.6728 0C6.56926 0 0 6.56926 0 14.6729C0 21.7079 4.95102 27.5866 11.5588 29.0146L14.36 33.5956C14.6795 34.118 15.4449 34.1042 15.7452 33.5705L18.389 28.871ZM9.59436 10.6313V14.0275H7.33636V9.13469C7.33636 7.44293 8.68821 6.07149 10.3558 6.07149H19.4957C21.1633 6.07149 22.5152 7.44293 22.5152 9.13469V14.0275H20.0063V10.6313C20.0063 10.1238 19.6007 9.71239 19.1004 9.71239H10.5002C9.99992 9.71239 9.59436 10.1238 9.59436 10.6313ZM11.89 7.99634C11.89 7.78372 12.0599 7.61137 12.2695 7.61137H17.5821C17.7916 7.61137 17.9615 7.78372 17.9615 7.99634C17.9615 8.20895 17.7916 8.38131 17.5821 8.38131H12.2695C12.0599 8.38131 11.89 8.20895 11.89 7.99634ZM23.6821 12.7443H23.2741V16.0807H23.9841C24.1508 16.0807 24.286 15.9436 24.286 15.7744V13.3569C24.286 13.0186 24.0157 12.7443 23.6821 12.7443ZM19.0224 23.7801C18.8556 23.7801 18.7205 23.643 18.7205 23.4738V22.5465C18.7205 22.3774 18.8556 22.2402 19.0224 22.2402H21.7073C21.874 22.2402 22.0092 22.3774 22.0092 22.5465V23.4738C22.0092 23.643 21.874 23.7801 21.7073 23.7801H19.0224ZM7.84232 23.4738C7.84232 23.643 7.9775 23.7801 8.14426 23.7801H10.8291C10.9959 23.7801 11.1311 23.643 11.1311 23.4738V22.5465C11.1311 22.3774 10.9959 22.2402 10.8291 22.2402H8.14426C7.9775 22.2402 7.84232 22.3774 7.84232 22.5465V23.4738ZM5.5655 13.3569C5.5655 13.0186 5.83587 12.7443 6.16938 12.7443H6.57742V16.0807H5.86744C5.70068 16.0807 5.5655 15.9436 5.5655 15.7744V13.3569ZM22.5152 15.0541H7.33636V20.808C7.33636 21.3155 7.74191 21.7269 8.24219 21.7269H21.6093C22.1096 21.7269 22.5152 21.3155 22.5152 20.808V15.0541ZM18.847 17.3639C18.2182 17.3639 17.7085 17.881 17.7085 18.5188C17.7085 19.1567 18.2182 19.6738 18.847 19.6738C19.4757 19.6738 19.9854 19.1567 19.9854 18.5188C19.9854 17.881 19.4757 17.3639 18.847 17.3639ZM10.1191 18.5188C10.1191 17.881 10.6288 17.3639 11.2576 17.3639C11.8863 17.3639 12.396 17.881 12.396 18.5188C12.396 19.1567 11.8863 19.6738 11.2576 19.6738C10.6288 19.6738 10.1191 19.1567 10.1191 18.5188Z" fill="white"/>
<path d="M140.328 0.130819C141.173 0.132455 141.977 0.489964 142.545 1.11556L148.584 7.77566C149.755 9.06678 148.829 11.1335 147.086 11.1191L116.054 10.8633V30.4128C116.054 30.7259 115.94 30.9962 115.713 31.2238C115.485 31.4515 115.215 31.5653 114.902 31.5653H106.109C105.796 31.5653 105.525 31.4515 105.298 31.2238C105.07 30.9962 104.956 30.7259 104.956 30.4128V10.8633H72.465C72.152 10.8633 71.8816 10.7494 71.654 10.5218C71.4263 10.2941 71.3125 10.0238 71.3125 9.71077L71.654 1.15249C71.654 0.839466 71.7678 0.56913 71.9955 0.341478C72.2231 0.113826 72.4935 0 72.8065 0L140.328 0.130819Z" fill="white"/>
<path d="M86.9608 31.3255C82.1801 31.3255 78.3811 30.2868 75.564 28.2095C72.7752 26.1322 71.3809 22.8881 71.3809 18.4774L71.3809 14.1769C71.3809 13.8639 71.4947 13.5935 71.7223 13.3659C71.95 13.1382 72.2203 13.0244 72.5333 13.0244H81.4544C81.7675 13.0244 82.0378 13.1382 82.2654 13.3659C82.4931 13.5935 82.6069 13.8639 82.6069 14.1769V19.1603C82.6069 20.3271 82.9911 21.2234 83.7594 21.8495C84.5562 22.4755 85.6233 22.7885 86.9608 22.7885C88.2982 22.7885 89.3511 22.4755 90.1194 21.8495C90.9162 21.2234 91.3146 20.3271 91.3146 19.1603V14.1769C91.3146 13.8639 91.4284 13.5935 91.6561 13.3659C91.8837 13.1382 92.1541 13.0244 92.4671 13.0244H101.388C101.701 13.0244 101.972 13.1382 102.199 13.3659C102.427 13.5935 102.541 13.8639 102.541 14.1769V18.4774C102.541 22.8881 101.132 26.1322 98.3149 28.2095C95.5261 30.2868 91.7414 31.3255 86.9608 31.3255Z" fill="white"/>
<path d="M70.2025 29.5751C70.2594 29.6889 70.2879 29.817 70.2879 29.9592C70.2879 30.2154 70.1883 30.443 69.9891 30.6422C69.8183 30.8129 69.6049 30.8983 69.3488 30.8983H59.6594C59.261 30.8983 58.8911 30.7987 58.5496 30.5995C58.2366 30.4003 58.0089 30.1442 57.8666 29.8312L54.1104 21.3796H50.5249V29.7458C50.5249 30.0588 50.411 30.3292 50.1834 30.5568C49.9557 30.7845 49.6854 30.8983 49.3724 30.8983H40.1525C39.8395 30.8983 39.5691 30.7845 39.3415 30.5568C39.1138 30.3292 39 30.0588 39 29.7458V2.17153C39 1.85851 39.1138 1.58817 39.3415 1.36052C39.5691 1.13287 39.8395 1.01904 40.1525 1.01904H56.7568C59.3179 1.01904 61.5517 1.43166 63.4583 2.2569C65.3933 3.08214 66.8731 4.27731 67.8975 5.84241C68.9219 7.40752 69.4342 9.24296 69.4342 11.3487C69.4342 15.2188 67.9402 18.0218 64.9523 19.7576L70.2025 29.5751ZM55.8604 13.483C56.4865 13.483 56.9702 13.2838 57.3117 12.8854C57.6532 12.4585 57.8239 11.9321 57.8239 11.306C57.8239 10.68 57.6532 10.1393 57.3117 9.68403C56.9987 9.20027 56.5149 8.95839 55.8604 8.95839H50.5249V13.483H55.8604Z" fill="white"/>
<path d="M146.495 20.2283V17.6922C146.495 16.5876 145.6 15.6922 144.495 15.6922H130.822L130.822 13.0244H119.817L119.817 15.6922V28.8986C119.817 30.0032 120.713 30.8986 121.817 30.8986H147.163C148.268 30.8986 149.163 30.0032 149.163 28.8986V26.8961C149.163 25.7915 148.268 24.8961 147.163 24.8961H130.822V22.2283H144.495C145.6 22.2283 146.495 21.3329 146.495 20.2283Z" fill="white"/>
</svg>
